<mxfile host="app.diagrams.net" modified="2024-02-06T03:26:27.223Z" agent="Mozilla/5.0 (X11; Linux x86_64; rv:109.0) Gecko/20100101 Firefox/115.0" etag="qguCxL4d3sJWrKadJIEu" version="23.1.1" type="github">
  <diagram name="Page-1" id="bfe91b75-5d2c-26a0-9c1d-138518896778">
    <mxGraphModel dx="2206" dy="1223" grid="1" gridSize="10" guides="1" tooltips="1" connect="1" arrows="1" fold="1" page="1" pageScale="1" pageWidth="1100" pageHeight="850" background="none" math="0" shadow="0">
      <root>
        <mxCell id="0" />
        <mxCell id="1" parent="0" />
        <mxCell id="7c3789c024ecab99-82" value="Security Cameras" style="rounded=1;whiteSpace=wrap;html=1;shadow=0;comic=0;strokeColor=#036897;strokeWidth=2;fillColor=none;fontFamily=Verdana;fontSize=28;fontColor=#6881B3;align=center;arcSize=11;verticalAlign=top;" parent="1" vertex="1">
          <mxGeometry x="75" y="1390" width="1065" height="420" as="geometry" />
        </mxCell>
        <mxCell id="7c3789c024ecab99-81" value="VoIP" style="rounded=1;whiteSpace=wrap;html=1;shadow=0;comic=0;strokeColor=#036897;strokeWidth=2;fillColor=none;fontFamily=Verdana;fontSize=28;fontColor=#6881B3;align=center;arcSize=11;verticalAlign=top;" parent="1" vertex="1">
          <mxGeometry x="75" y="900" width="1065" height="420" as="geometry" />
        </mxCell>
        <mxCell id="7c3789c024ecab99-79" value="Client Devices" style="rounded=1;whiteSpace=wrap;html=1;shadow=0;comic=0;strokeColor=#036897;strokeWidth=2;fillColor=none;fontFamily=Verdana;fontSize=28;fontColor=#6881B3;align=center;arcSize=11;verticalAlign=top;" parent="1" vertex="1">
          <mxGeometry x="78" y="462" width="1065" height="420" as="geometry" />
        </mxCell>
        <mxCell id="7c3789c024ecab99-55" style="edgeStyle=none;html=1;labelBackgroundColor=none;endArrow=none;endFill=0;strokeWidth=2;fontFamily=Verdana;fontSize=28;fontColor=#6881B3;" parent="1" source="7c3789c024ecab99-8" target="7c3789c024ecab99-54" edge="1">
          <mxGeometry relative="1" as="geometry">
            <mxPoint x="1660" y="837.0000000000002" as="targetPoint" />
          </mxGeometry>
        </mxCell>
        <mxCell id="7c3789c024ecab99-8" value="Firewall&lt;br&gt;(pfSense/OPNSense)" style="fontColor=#0066CC;verticalAlign=top;verticalLabelPosition=bottom;labelPosition=center;align=center;html=1;fillColor=#CCCCCC;strokeColor=#6881B3;gradientColor=none;gradientDirection=north;strokeWidth=2;shape=mxgraph.networks.firewall;rounded=0;shadow=0;comic=0;" parent="1" vertex="1">
          <mxGeometry x="1490" y="847" width="100" height="100" as="geometry" />
        </mxCell>
        <mxCell id="7c3789c024ecab99-52" style="edgeStyle=none;html=1;labelBackgroundColor=none;endArrow=none;endFill=0;strokeWidth=2;fontFamily=Verdana;fontSize=15;fontColor=#036897;" parent="1" source="7c3789c024ecab99-10" target="7c3789c024ecab99-8" edge="1">
          <mxGeometry relative="1" as="geometry">
            <mxPoint x="1549.9999999999995" y="917" as="targetPoint" />
          </mxGeometry>
        </mxCell>
        <mxCell id="7c3789c024ecab99-10" value="" style="fontColor=#0066CC;verticalAlign=top;verticalLabelPosition=bottom;labelPosition=center;align=center;html=1;fillColor=#CCCCCC;strokeColor=#6881B3;gradientColor=none;gradientDirection=north;strokeWidth=2;shape=mxgraph.networks.router;rounded=0;shadow=0;comic=0;" parent="1" vertex="1">
          <mxGeometry x="1300" y="882" width="100" height="30" as="geometry" />
        </mxCell>
        <mxCell id="7c3789c024ecab99-20" value="" style="fontColor=#0066CC;verticalAlign=top;verticalLabelPosition=bottom;labelPosition=center;align=center;html=1;fillColor=#CCCCCC;strokeColor=#6881B3;gradientColor=none;gradientDirection=north;strokeWidth=2;shape=mxgraph.networks.pc;rounded=0;shadow=0;comic=0;" parent="1" vertex="1">
          <mxGeometry x="130.00000000000028" y="765" width="100" height="70" as="geometry" />
        </mxCell>
        <mxCell id="7c3789c024ecab99-21" value="" style="fontColor=#0066CC;verticalAlign=top;verticalLabelPosition=bottom;labelPosition=center;align=center;html=1;fillColor=#CCCCCC;strokeColor=#6881B3;gradientColor=none;gradientDirection=north;strokeWidth=2;shape=mxgraph.networks.pc;rounded=0;shadow=0;comic=0;" parent="1" vertex="1">
          <mxGeometry x="270.0000000000003" y="765" width="100" height="70" as="geometry" />
        </mxCell>
        <mxCell id="7c3789c024ecab99-23" value="" style="fontColor=#0066CC;verticalAlign=top;verticalLabelPosition=bottom;labelPosition=center;align=center;html=1;fillColor=#CCCCCC;strokeColor=#6881B3;gradientColor=none;gradientDirection=north;strokeWidth=2;shape=mxgraph.networks.pc;rounded=0;shadow=0;comic=0;" parent="1" vertex="1">
          <mxGeometry x="390.0000000000003" y="765" width="100" height="70" as="geometry" />
        </mxCell>
        <mxCell id="7c3789c024ecab99-25" value="" style="fontColor=#0066CC;verticalAlign=top;verticalLabelPosition=bottom;labelPosition=center;align=center;html=1;fillColor=#CCCCCC;strokeColor=#6881B3;gradientColor=none;gradientDirection=north;strokeWidth=2;shape=mxgraph.networks.pc;rounded=0;shadow=0;comic=0;" parent="1" vertex="1">
          <mxGeometry x="510.0000000000003" y="765" width="100" height="70" as="geometry" />
        </mxCell>
        <mxCell id="7c3789c024ecab99-27" value="" style="fontColor=#0066CC;verticalAlign=top;verticalLabelPosition=bottom;labelPosition=center;align=center;html=1;fillColor=#CCCCCC;strokeColor=#6881B3;gradientColor=none;gradientDirection=north;strokeWidth=2;shape=mxgraph.networks.pc;rounded=0;shadow=0;comic=0;" parent="1" vertex="1">
          <mxGeometry x="640.0000000000002" y="765" width="100" height="70" as="geometry" />
        </mxCell>
        <mxCell id="7c3789c024ecab99-29" value="" style="fontColor=#0066CC;verticalAlign=top;verticalLabelPosition=bottom;labelPosition=center;align=center;html=1;fillColor=#CCCCCC;strokeColor=#6881B3;gradientColor=none;gradientDirection=north;strokeWidth=2;shape=mxgraph.networks.printer;rounded=0;shadow=0;comic=0;" parent="1" vertex="1">
          <mxGeometry x="770.0000000000002" y="750" width="100" height="100" as="geometry" />
        </mxCell>
        <mxCell id="7c3789c024ecab99-50" style="edgeStyle=orthogonalEdgeStyle;html=1;labelBackgroundColor=none;endArrow=none;endFill=0;strokeWidth=2;fontFamily=Verdana;fontSize=15;fontColor=#036897;exitX=0.937;exitY=0.799;exitDx=0;exitDy=0;exitPerimeter=0;strokeColor=#007FFF;" parent="1" source="7c3789c024ecab99-30" target="7c3789c024ecab99-10" edge="1">
          <mxGeometry relative="1" as="geometry">
            <mxPoint x="1079.9999999999995" y="410" as="targetPoint" />
            <mxPoint x="1200" y="620" as="sourcePoint" />
            <Array as="points">
              <mxPoint x="684" y="590" />
              <mxPoint x="1390" y="590" />
            </Array>
          </mxGeometry>
        </mxCell>
        <mxCell id="7c3789c024ecab99-30" value="Eero (bridge mode)" style="fontColor=#0066CC;verticalAlign=top;verticalLabelPosition=bottom;labelPosition=center;align=center;html=1;fillColor=#CCCCCC;strokeColor=#6881B3;gradientColor=none;gradientDirection=north;strokeWidth=2;shape=mxgraph.networks.wireless_hub;rounded=0;shadow=0;comic=0;" parent="1" vertex="1">
          <mxGeometry x="590.0000000000002" y="520" width="100" height="85" as="geometry" />
        </mxCell>
        <mxCell id="7c3789c024ecab99-31" value="" style="html=1;fillColor=#CCCCCC;strokeColor=#6881B3;gradientColor=none;gradientDirection=north;strokeWidth=2;shape=mxgraph.networks.comm_link_edge;html=1;labelBackgroundColor=none;endArrow=none;endFill=0;fontFamily=Verdana;fontSize=20;" parent="1" source="7c3789c024ecab99-30" target="7c3789c024ecab99-32" edge="1">
          <mxGeometry width="100" height="100" relative="1" as="geometry">
            <mxPoint x="900.0000000000002" y="675" as="sourcePoint" />
            <mxPoint x="603.0000000000002" y="588" as="targetPoint" />
          </mxGeometry>
        </mxCell>
        <mxCell id="7c3789c024ecab99-32" value="Wireless Devices&lt;br&gt;(personal)" style="fontColor=#0066CC;verticalAlign=top;verticalLabelPosition=bottom;labelPosition=center;align=center;html=1;fillColor=#CCCCCC;strokeColor=#6881B3;gradientColor=none;gradientDirection=north;strokeWidth=2;shape=mxgraph.networks.mobile;rounded=0;shadow=0;comic=0;" parent="1" vertex="1">
          <mxGeometry x="320.0000000000003" y="485" width="50" height="100" as="geometry" />
        </mxCell>
        <mxCell id="7c3789c024ecab99-51" style="edgeStyle=orthogonalEdgeStyle;html=1;labelBackgroundColor=none;endArrow=none;endFill=0;strokeWidth=2;fontFamily=Verdana;fontSize=15;fontColor=#036897;strokeColor=#33FF33;" parent="1" target="7c3789c024ecab99-10" edge="1">
          <mxGeometry relative="1" as="geometry">
            <mxPoint x="1180" y="430" as="targetPoint" />
            <Array as="points">
              <mxPoint x="1340" y="1080" />
            </Array>
            <mxPoint x="650" y="1080.0769230769229" as="sourcePoint" />
          </mxGeometry>
        </mxCell>
        <mxCell id="7c3789c024ecab99-53" value="Internet" style="html=1;fillColor=#CCCCCC;strokeColor=#6881B3;gradientColor=none;gradientDirection=north;strokeWidth=2;shape=mxgraph.networks.cloud;fontColor=#6881B3;rounded=0;shadow=0;comic=0;align=center;fontSize=28;" parent="1" vertex="1">
          <mxGeometry x="1760" y="689" width="330" height="140" as="geometry" />
        </mxCell>
        <mxCell id="7c3789c024ecab99-56" style="edgeStyle=none;html=1;labelBackgroundColor=none;endArrow=none;endFill=0;strokeWidth=2;fontFamily=Verdana;fontSize=28;fontColor=#6881B3;" parent="1" source="7c3789c024ecab99-54" target="7c3789c024ecab99-53" edge="1">
          <mxGeometry relative="1" as="geometry" />
        </mxCell>
        <mxCell id="7c3789c024ecab99-54" value="" style="fontColor=#0066CC;verticalAlign=top;verticalLabelPosition=bottom;labelPosition=center;align=center;html=1;fillColor=#CCCCCC;strokeColor=#6881B3;gradientColor=none;gradientDirection=north;strokeWidth=2;shape=mxgraph.networks.router;rounded=0;shadow=0;comic=0;" parent="1" vertex="1">
          <mxGeometry x="1640" y="882" width="100" height="30" as="geometry" />
        </mxCell>
        <mxCell id="7c3789c024ecab99-75" style="edgeStyle=orthogonalEdgeStyle;html=1;labelBackgroundColor=none;endArrow=none;endFill=0;strokeWidth=2;fontFamily=Verdana;fontSize=28;fontColor=#6881B3;exitX=1;exitY=0.5;exitDx=0;exitDy=0;exitPerimeter=0;strokeColor=#FF33FF;" parent="1" source="9nKBFp8tCqH7UL8rhXlP-11" target="7c3789c024ecab99-10" edge="1">
          <mxGeometry relative="1" as="geometry">
            <mxPoint x="1240" y="760" as="targetPoint" />
            <Array as="points">
              <mxPoint x="1330" y="1535" />
            </Array>
            <mxPoint x="720.0769230769233" y="1525" as="sourcePoint" />
          </mxGeometry>
        </mxCell>
        <mxCell id="9nKBFp8tCqH7UL8rhXlP-3" value="" style="fontColor=#0066CC;verticalAlign=top;verticalLabelPosition=bottom;labelPosition=center;align=center;html=1;outlineConnect=0;fillColor=#CCCCCC;strokeColor=#6881B3;gradientColor=none;gradientDirection=north;strokeWidth=2;shape=mxgraph.networks.security_camera;" parent="1" vertex="1">
          <mxGeometry x="110" y="1680" width="100" height="75" as="geometry" />
        </mxCell>
        <mxCell id="9nKBFp8tCqH7UL8rhXlP-4" value="" style="fontColor=#0066CC;verticalAlign=top;verticalLabelPosition=bottom;labelPosition=center;align=center;html=1;outlineConnect=0;fillColor=#CCCCCC;strokeColor=#6881B3;gradientColor=none;gradientDirection=north;strokeWidth=2;shape=mxgraph.networks.security_camera;" parent="1" vertex="1">
          <mxGeometry x="230" y="1680" width="100" height="75" as="geometry" />
        </mxCell>
        <mxCell id="9nKBFp8tCqH7UL8rhXlP-5" value="" style="fontColor=#0066CC;verticalAlign=top;verticalLabelPosition=bottom;labelPosition=center;align=center;html=1;outlineConnect=0;fillColor=#CCCCCC;strokeColor=#6881B3;gradientColor=none;gradientDirection=north;strokeWidth=2;shape=mxgraph.networks.security_camera;" parent="1" vertex="1">
          <mxGeometry x="360" y="1680" width="100" height="75" as="geometry" />
        </mxCell>
        <mxCell id="9nKBFp8tCqH7UL8rhXlP-6" value="" style="fontColor=#0066CC;verticalAlign=top;verticalLabelPosition=bottom;labelPosition=center;align=center;html=1;outlineConnect=0;fillColor=#CCCCCC;strokeColor=#6881B3;gradientColor=none;gradientDirection=north;strokeWidth=2;shape=mxgraph.networks.security_camera;" parent="1" vertex="1">
          <mxGeometry x="470" y="1680" width="100" height="75" as="geometry" />
        </mxCell>
        <mxCell id="9nKBFp8tCqH7UL8rhXlP-7" value="" style="fontColor=#0066CC;verticalAlign=top;verticalLabelPosition=bottom;labelPosition=center;align=center;html=1;outlineConnect=0;fillColor=#CCCCCC;strokeColor=#6881B3;gradientColor=none;gradientDirection=north;strokeWidth=2;shape=mxgraph.networks.security_camera;" parent="1" vertex="1">
          <mxGeometry x="580" y="1680" width="100" height="75" as="geometry" />
        </mxCell>
        <mxCell id="9nKBFp8tCqH7UL8rhXlP-8" value="" style="fontColor=#0066CC;verticalAlign=top;verticalLabelPosition=bottom;labelPosition=center;align=center;html=1;outlineConnect=0;fillColor=#CCCCCC;strokeColor=#6881B3;gradientColor=none;gradientDirection=north;strokeWidth=2;shape=mxgraph.networks.security_camera;" parent="1" vertex="1">
          <mxGeometry x="690" y="1680" width="100" height="75" as="geometry" />
        </mxCell>
        <mxCell id="9nKBFp8tCqH7UL8rhXlP-9" value="" style="fontColor=#0066CC;verticalAlign=top;verticalLabelPosition=bottom;labelPosition=center;align=center;html=1;outlineConnect=0;fillColor=#CCCCCC;strokeColor=#6881B3;gradientColor=none;gradientDirection=north;strokeWidth=2;shape=mxgraph.networks.security_camera;" parent="1" vertex="1">
          <mxGeometry x="800" y="1680" width="100" height="75" as="geometry" />
        </mxCell>
        <mxCell id="9nKBFp8tCqH7UL8rhXlP-10" value="" style="fontColor=#0066CC;verticalAlign=top;verticalLabelPosition=bottom;labelPosition=center;align=center;html=1;outlineConnect=0;fillColor=#CCCCCC;strokeColor=#6881B3;gradientColor=none;gradientDirection=north;strokeWidth=2;shape=mxgraph.networks.security_camera;" parent="1" vertex="1">
          <mxGeometry x="910" y="1680" width="100" height="75" as="geometry" />
        </mxCell>
        <mxCell id="9nKBFp8tCqH7UL8rhXlP-11" value="&lt;font style=&quot;font-size: 13px;&quot;&gt;NVR&lt;/font&gt;" style="fontColor=#0066CC;verticalAlign=top;verticalLabelPosition=bottom;labelPosition=center;align=center;html=1;outlineConnect=0;fillColor=#CCCCCC;strokeColor=#6881B3;gradientColor=none;gradientDirection=north;strokeWidth=2;shape=mxgraph.networks.router;" parent="1" vertex="1">
          <mxGeometry x="558" y="1520" width="100" height="30" as="geometry" />
        </mxCell>
        <mxCell id="9nKBFp8tCqH7UL8rhXlP-12" value="VLAN 50 - IoT" style="text;html=1;align=center;verticalAlign=middle;resizable=0;points=[];autosize=1;strokeColor=none;fillColor=none;fontSize=20;" parent="1" vertex="1">
          <mxGeometry x="1145" y="1490" width="150" height="40" as="geometry" />
        </mxCell>
        <mxCell id="9nKBFp8tCqH7UL8rhXlP-13" value="" style="fontColor=#0066CC;verticalAlign=top;verticalLabelPosition=bottom;labelPosition=center;align=center;html=1;outlineConnect=0;fillColor=#CCCCCC;strokeColor=#6881B3;gradientColor=none;gradientDirection=north;strokeWidth=2;shape=mxgraph.networks.phone_2;" parent="1" vertex="1">
          <mxGeometry x="110" y="1220" width="100" height="90" as="geometry" />
        </mxCell>
        <mxCell id="9nKBFp8tCqH7UL8rhXlP-15" value="Asterisk/FreePBX" style="fontColor=#0066CC;verticalAlign=top;verticalLabelPosition=bottom;labelPosition=center;align=center;html=1;outlineConnect=0;fillColor=#CCCCCC;strokeColor=#6881B3;gradientColor=none;gradientDirection=north;strokeWidth=2;shape=mxgraph.networks.server;" parent="1" vertex="1">
          <mxGeometry x="540" y="980" width="90" height="100" as="geometry" />
        </mxCell>
        <mxCell id="A_-BSA_oqNom-n1UGNlS-1" value="" style="fontColor=#0066CC;verticalAlign=top;verticalLabelPosition=bottom;labelPosition=center;align=center;html=1;outlineConnect=0;fillColor=#CCCCCC;strokeColor=#6881B3;gradientColor=none;gradientDirection=north;strokeWidth=2;shape=mxgraph.networks.phone_2;" parent="1" vertex="1">
          <mxGeometry x="230" y="1220" width="100" height="90" as="geometry" />
        </mxCell>
        <mxCell id="A_-BSA_oqNom-n1UGNlS-2" value="" style="fontColor=#0066CC;verticalAlign=top;verticalLabelPosition=bottom;labelPosition=center;align=center;html=1;outlineConnect=0;fillColor=#CCCCCC;strokeColor=#6881B3;gradientColor=none;gradientDirection=north;strokeWidth=2;shape=mxgraph.networks.phone_2;" parent="1" vertex="1">
          <mxGeometry x="360" y="1220" width="100" height="90" as="geometry" />
        </mxCell>
        <mxCell id="A_-BSA_oqNom-n1UGNlS-3" value="" style="fontColor=#0066CC;verticalAlign=top;verticalLabelPosition=bottom;labelPosition=center;align=center;html=1;outlineConnect=0;fillColor=#CCCCCC;strokeColor=#6881B3;gradientColor=none;gradientDirection=north;strokeWidth=2;shape=mxgraph.networks.phone_2;" parent="1" vertex="1">
          <mxGeometry x="640" y="1220" width="100" height="90" as="geometry" />
        </mxCell>
        <mxCell id="A_-BSA_oqNom-n1UGNlS-4" value="" style="fontColor=#0066CC;verticalAlign=top;verticalLabelPosition=bottom;labelPosition=center;align=center;html=1;outlineConnect=0;fillColor=#CCCCCC;strokeColor=#6881B3;gradientColor=none;gradientDirection=north;strokeWidth=2;shape=mxgraph.networks.phone_2;" parent="1" vertex="1">
          <mxGeometry x="490" y="1220" width="100" height="90" as="geometry" />
        </mxCell>
        <mxCell id="A_-BSA_oqNom-n1UGNlS-6" style="edgeStyle=orthogonalEdgeStyle;html=1;labelBackgroundColor=none;endArrow=none;endFill=0;strokeWidth=2;fontFamily=Verdana;fontSize=15;fontColor=#036897;strokeColor=#33FF33;exitX=0.5;exitY=0.11;exitDx=0;exitDy=0;exitPerimeter=0;entryX=0.5;entryY=1;entryDx=0;entryDy=0;entryPerimeter=0;" parent="1" source="9nKBFp8tCqH7UL8rhXlP-13" target="7c3789c024ecab99-10" edge="1">
          <mxGeometry relative="1" as="geometry">
            <mxPoint x="1350" y="922" as="targetPoint" />
            <Array as="points">
              <mxPoint x="160" y="1120" />
              <mxPoint x="1350" y="1120" />
            </Array>
            <mxPoint x="660" y="1090.0769230769229" as="sourcePoint" />
          </mxGeometry>
        </mxCell>
        <mxCell id="A_-BSA_oqNom-n1UGNlS-7" style="edgeStyle=orthogonalEdgeStyle;html=1;labelBackgroundColor=none;endArrow=none;endFill=0;strokeWidth=2;fontFamily=Verdana;fontSize=15;fontColor=#036897;strokeColor=#33FF33;exitX=0.5;exitY=0.11;exitDx=0;exitDy=0;exitPerimeter=0;entryX=0.6;entryY=0.933;entryDx=0;entryDy=0;entryPerimeter=0;" parent="1" source="A_-BSA_oqNom-n1UGNlS-1" target="7c3789c024ecab99-10" edge="1">
          <mxGeometry relative="1" as="geometry">
            <mxPoint x="1360" y="932" as="targetPoint" />
            <Array as="points">
              <mxPoint x="280" y="1130" />
              <mxPoint x="1360" y="1130" />
            </Array>
            <mxPoint x="170" y="1240" as="sourcePoint" />
          </mxGeometry>
        </mxCell>
        <mxCell id="A_-BSA_oqNom-n1UGNlS-8" style="edgeStyle=orthogonalEdgeStyle;html=1;labelBackgroundColor=none;endArrow=none;endFill=0;strokeWidth=2;fontFamily=Verdana;fontSize=15;fontColor=#036897;strokeColor=#33FF33;exitX=0.5;exitY=0.11;exitDx=0;exitDy=0;exitPerimeter=0;entryX=0.703;entryY=0.975;entryDx=0;entryDy=0;entryPerimeter=0;" parent="1" source="A_-BSA_oqNom-n1UGNlS-2" target="7c3789c024ecab99-10" edge="1">
          <mxGeometry relative="1" as="geometry">
            <mxPoint x="1370" y="942" as="targetPoint" />
            <Array as="points">
              <mxPoint x="410" y="1140" />
              <mxPoint x="1370" y="1140" />
            </Array>
            <mxPoint x="180" y="1250" as="sourcePoint" />
          </mxGeometry>
        </mxCell>
        <mxCell id="A_-BSA_oqNom-n1UGNlS-9" style="edgeStyle=orthogonalEdgeStyle;html=1;labelBackgroundColor=none;endArrow=none;endFill=0;strokeWidth=2;fontFamily=Verdana;fontSize=15;fontColor=#036897;strokeColor=#33FF33;entryX=0.803;entryY=0.9;entryDx=0;entryDy=0;entryPerimeter=0;" parent="1" source="A_-BSA_oqNom-n1UGNlS-4" target="7c3789c024ecab99-10" edge="1">
          <mxGeometry relative="1" as="geometry">
            <mxPoint x="1380" y="952" as="targetPoint" />
            <Array as="points">
              <mxPoint x="540" y="1150" />
              <mxPoint x="1380" y="1150" />
            </Array>
            <mxPoint x="190" y="1260" as="sourcePoint" />
          </mxGeometry>
        </mxCell>
        <mxCell id="A_-BSA_oqNom-n1UGNlS-10" style="edgeStyle=orthogonalEdgeStyle;html=1;labelBackgroundColor=none;endArrow=none;endFill=0;strokeWidth=2;fontFamily=Verdana;fontSize=15;fontColor=#036897;strokeColor=#33FF33;entryX=0.9;entryY=1;entryDx=0;entryDy=0;entryPerimeter=0;" parent="1" source="A_-BSA_oqNom-n1UGNlS-3" target="7c3789c024ecab99-10" edge="1">
          <mxGeometry relative="1" as="geometry">
            <mxPoint x="1390" y="962" as="targetPoint" />
            <Array as="points">
              <mxPoint x="690" y="1160" />
              <mxPoint x="1390" y="1160" />
            </Array>
            <mxPoint x="200" y="1270" as="sourcePoint" />
          </mxGeometry>
        </mxCell>
        <mxCell id="A_-BSA_oqNom-n1UGNlS-11" value="VLAN 30 - Voice" style="text;html=1;align=center;verticalAlign=middle;resizable=0;points=[];autosize=1;strokeColor=none;fillColor=none;fontSize=20;" parent="1" vertex="1">
          <mxGeometry x="1140" y="1030" width="170" height="40" as="geometry" />
        </mxCell>
        <mxCell id="A_-BSA_oqNom-n1UGNlS-12" value="VLAN 10 - Client Devices" style="text;html=1;align=center;verticalAlign=middle;resizable=0;points=[];autosize=1;strokeColor=none;fillColor=none;fontSize=20;" parent="1" vertex="1">
          <mxGeometry x="1140" y="542.5" width="250" height="40" as="geometry" />
        </mxCell>
        <mxCell id="A_-BSA_oqNom-n1UGNlS-19" style="edgeStyle=orthogonalEdgeStyle;html=1;labelBackgroundColor=none;endArrow=none;endFill=0;strokeWidth=2;fontFamily=Verdana;fontSize=15;fontColor=#036897;strokeColor=#FF0080;exitX=0.5;exitY=0.11;exitDx=0;exitDy=0;exitPerimeter=0;rounded=1;curved=0;" parent="1" edge="1">
          <mxGeometry relative="1" as="geometry">
            <mxPoint x="1380" y="840" as="targetPoint" />
            <Array as="points">
              <mxPoint x="190" y="658" />
              <mxPoint x="1380" y="658" />
              <mxPoint x="1380" y="884" />
            </Array>
            <mxPoint x="190" y="768" as="sourcePoint" />
          </mxGeometry>
        </mxCell>
        <mxCell id="A_-BSA_oqNom-n1UGNlS-20" style="edgeStyle=orthogonalEdgeStyle;html=1;labelBackgroundColor=none;endArrow=none;endFill=0;strokeWidth=2;fontFamily=Verdana;fontSize=15;fontColor=#036897;strokeColor=#FF0080;exitX=0.57;exitY=0.089;exitDx=0;exitDy=0;exitPerimeter=0;" parent="1" source="7c3789c024ecab99-21" edge="1">
          <mxGeometry relative="1" as="geometry">
            <mxPoint x="1370" y="880" as="targetPoint" />
            <Array as="points">
              <mxPoint x="327" y="670" />
              <mxPoint x="1370" y="670" />
            </Array>
            <mxPoint x="180" y="1250" as="sourcePoint" />
          </mxGeometry>
        </mxCell>
        <mxCell id="A_-BSA_oqNom-n1UGNlS-21" style="edgeStyle=orthogonalEdgeStyle;html=1;labelBackgroundColor=none;endArrow=none;endFill=0;strokeWidth=2;fontFamily=Verdana;fontSize=15;fontColor=#036897;strokeColor=#FF0080;exitX=0.6;exitY=0.071;exitDx=0;exitDy=0;exitPerimeter=0;entryX=0.6;entryY=-0.067;entryDx=0;entryDy=0;entryPerimeter=0;" parent="1" source="7c3789c024ecab99-23" target="7c3789c024ecab99-10" edge="1">
          <mxGeometry relative="1" as="geometry">
            <mxPoint x="1360" y="820" as="targetPoint" />
            <Array as="points">
              <mxPoint x="450" y="680" />
              <mxPoint x="1360" y="680" />
            </Array>
            <mxPoint x="190" y="1260" as="sourcePoint" />
          </mxGeometry>
        </mxCell>
        <mxCell id="A_-BSA_oqNom-n1UGNlS-22" style="edgeStyle=orthogonalEdgeStyle;html=1;labelBackgroundColor=none;endArrow=none;endFill=0;strokeWidth=2;fontFamily=Verdana;fontSize=15;fontColor=#036897;strokeColor=#FF0080;exitX=0.603;exitY=-0.006;exitDx=0;exitDy=0;exitPerimeter=0;entryX=0.5;entryY=0;entryDx=0;entryDy=0;entryPerimeter=0;" parent="1" source="7c3789c024ecab99-25" target="7c3789c024ecab99-10" edge="1">
          <mxGeometry relative="1" as="geometry">
            <mxPoint x="1370" y="890" as="targetPoint" />
            <Array as="points">
              <mxPoint x="570" y="690" />
              <mxPoint x="1350" y="690" />
            </Array>
            <mxPoint x="460" y="780" as="sourcePoint" />
          </mxGeometry>
        </mxCell>
        <mxCell id="A_-BSA_oqNom-n1UGNlS-24" style="edgeStyle=orthogonalEdgeStyle;html=1;labelBackgroundColor=none;endArrow=none;endFill=0;strokeWidth=2;fontFamily=Verdana;fontSize=15;fontColor=#036897;strokeColor=#FF0080;exitX=0.581;exitY=0.01;exitDx=0;exitDy=0;exitPerimeter=0;entryX=0.4;entryY=-0.067;entryDx=0;entryDy=0;entryPerimeter=0;" parent="1" source="7c3789c024ecab99-27" target="7c3789c024ecab99-10" edge="1">
          <mxGeometry relative="1" as="geometry">
            <mxPoint x="1360" y="892" as="targetPoint" />
            <Array as="points">
              <mxPoint x="698" y="700" />
              <mxPoint x="1340" y="700" />
            </Array>
            <mxPoint x="580" y="775" as="sourcePoint" />
          </mxGeometry>
        </mxCell>
        <mxCell id="A_-BSA_oqNom-n1UGNlS-25" style="edgeStyle=orthogonalEdgeStyle;html=1;labelBackgroundColor=none;endArrow=none;endFill=0;strokeWidth=2;fontFamily=Verdana;fontSize=15;fontColor=#036897;strokeColor=#FF0080;exitX=0.5;exitY=0;exitDx=0;exitDy=0;exitPerimeter=0;entryX=0.3;entryY=-0.067;entryDx=0;entryDy=0;entryPerimeter=0;" parent="1" source="7c3789c024ecab99-29" target="7c3789c024ecab99-10" edge="1">
          <mxGeometry relative="1" as="geometry">
            <mxPoint x="1370" y="902" as="targetPoint" />
            <Array as="points">
              <mxPoint x="820" y="710" />
              <mxPoint x="1330" y="710" />
            </Array>
            <mxPoint x="590" y="785" as="sourcePoint" />
          </mxGeometry>
        </mxCell>
        <mxCell id="A_-BSA_oqNom-n1UGNlS-26" value="SW.ETH01" style="text;html=1;align=center;verticalAlign=middle;resizable=0;points=[];autosize=1;strokeColor=none;fillColor=none;" parent="1" vertex="1">
          <mxGeometry x="1400" y="860" width="80" height="30" as="geometry" />
        </mxCell>
        <mxCell id="A_-BSA_oqNom-n1UGNlS-27" value="SW.ETH02-ETH07" style="text;html=1;align=center;verticalAlign=middle;resizable=0;points=[];autosize=1;strokeColor=none;fillColor=none;" parent="1" vertex="1">
          <mxGeometry x="1163" y="1170" width="120" height="30" as="geometry" />
        </mxCell>
        <mxCell id="A_-BSA_oqNom-n1UGNlS-29" value="Guest wifi?" style="text;html=1;strokeColor=none;fillColor=none;align=center;verticalAlign=middle;whiteSpace=wrap;rounded=0;fontStyle=2;fontSize=11;" parent="1" vertex="1">
          <mxGeometry x="450" y="570" width="60" height="30" as="geometry" />
        </mxCell>
        <mxCell id="A_-BSA_oqNom-n1UGNlS-30" value="SW.ETH10" style="text;html=1;align=center;verticalAlign=middle;resizable=0;points=[];autosize=1;strokeColor=none;fillColor=none;" parent="1" vertex="1">
          <mxGeometry x="1184" y="1550" width="80" height="30" as="geometry" />
        </mxCell>
        <mxCell id="A_-BSA_oqNom-n1UGNlS-31" value="SW.ETH11-17" style="text;html=1;align=center;verticalAlign=middle;resizable=0;points=[];autosize=1;strokeColor=none;fillColor=none;" parent="1" vertex="1">
          <mxGeometry x="1175" y="720" width="100" height="30" as="geometry" />
        </mxCell>
        <mxCell id="A_-BSA_oqNom-n1UGNlS-32" value="Misc Notes:&lt;br&gt;&lt;br&gt;A single 20-24 port switch should work fine. More switches can be added if it simplifies cable running&lt;br&gt;&lt;br&gt;pfSense and OPNSense work best with Intel NICs. Realtek NICs randomly crash.&lt;br&gt;&lt;br&gt;VLAN 5 - Full access to server. Specific port on the firewall with a specific static IP address, and remote access via Tailscale (preferred) or WireGuard.&lt;br&gt;&lt;br&gt;VLAN 10 - Can be segmented more if need be. Ports should be&amp;nbsp;&lt;br&gt;VLAN 30 (Voice) - Port Security should be enabled on all ports. If we want, we can place the server in the DMZ for additional segmentation.&amp;nbsp;&lt;i&gt;Will Asterisk/FreePBX assign numbers based on static IP addresses/MAC address only/etc?&lt;/i&gt;&lt;br&gt;VLAN 50 (IoT) - Internet access only, assuming customer wants to use NVR&#39;s online features. If not, limited network access and no internet access." style="rounded=1;whiteSpace=wrap;html=1;align=left;" parent="1" vertex="1">
          <mxGeometry x="1440" y="990" width="410" height="350" as="geometry" />
        </mxCell>
        <mxCell id="A_-BSA_oqNom-n1UGNlS-33" value="Management/Remote Access" style="fontColor=#0066CC;verticalAlign=top;verticalLabelPosition=bottom;labelPosition=center;align=center;html=1;outlineConnect=0;fillColor=#CCCCCC;strokeColor=#6881B3;gradientColor=none;gradientDirection=north;strokeWidth=2;shape=mxgraph.networks.laptop;horizontal=1;spacing=2;spacingTop=-85;" parent="1" vertex="1">
          <mxGeometry x="1490" y="520" width="100" height="55" as="geometry" />
        </mxCell>
        <mxCell id="A_-BSA_oqNom-n1UGNlS-37" style="rounded=0;orthogonalLoop=1;jettySize=auto;html=1;exitX=0.5;exitY=1;exitDx=0;exitDy=0;exitPerimeter=0;entryX=0.5;entryY=0;entryDx=0;entryDy=0;entryPerimeter=0;strokeWidth=2;strokeColor=#67AB9F;" parent="1" source="A_-BSA_oqNom-n1UGNlS-33" target="7c3789c024ecab99-8" edge="1">
          <mxGeometry relative="1" as="geometry" />
        </mxCell>
        <mxCell id="A_-BSA_oqNom-n1UGNlS-38" value="VLAN 5 - Management" style="text;html=1;align=center;verticalAlign=middle;resizable=0;points=[];autosize=1;strokeColor=none;fillColor=none;fontSize=20;" parent="1" vertex="1">
          <mxGeometry x="1540" y="630" width="230" height="40" as="geometry" />
        </mxCell>
        <mxCell id="A_-BSA_oqNom-n1UGNlS-40" value="" style="endArrow=none;html=1;rounded=0;exitX=0.5;exitY=0.133;exitDx=0;exitDy=0;exitPerimeter=0;entryX=0.1;entryY=1;entryDx=0;entryDy=0;entryPerimeter=0;" parent="1" source="9nKBFp8tCqH7UL8rhXlP-3" target="9nKBFp8tCqH7UL8rhXlP-11" edge="1">
          <mxGeometry width="50" height="50" relative="1" as="geometry">
            <mxPoint x="160" y="1650" as="sourcePoint" />
            <mxPoint x="210" y="1600" as="targetPoint" />
            <Array as="points">
              <mxPoint x="160" y="1550" />
            </Array>
          </mxGeometry>
        </mxCell>
        <mxCell id="A_-BSA_oqNom-n1UGNlS-41" value="" style="endArrow=none;html=1;rounded=0;exitX=0.5;exitY=0.133;exitDx=0;exitDy=0;exitPerimeter=0;entryX=0.2;entryY=1;entryDx=0;entryDy=0;entryPerimeter=0;" parent="1" source="9nKBFp8tCqH7UL8rhXlP-4" target="9nKBFp8tCqH7UL8rhXlP-11" edge="1">
          <mxGeometry width="50" height="50" relative="1" as="geometry">
            <mxPoint x="170" y="1700" as="sourcePoint" />
            <mxPoint x="578" y="1560" as="targetPoint" />
            <Array as="points">
              <mxPoint x="280" y="1570" />
              <mxPoint x="578" y="1570" />
            </Array>
          </mxGeometry>
        </mxCell>
        <mxCell id="A_-BSA_oqNom-n1UGNlS-42" value="" style="endArrow=none;html=1;rounded=0;exitX=0.5;exitY=0.133;exitDx=0;exitDy=0;exitPerimeter=0;entryX=0.3;entryY=1;entryDx=0;entryDy=0;entryPerimeter=0;" parent="1" source="9nKBFp8tCqH7UL8rhXlP-5" target="9nKBFp8tCqH7UL8rhXlP-11" edge="1">
          <mxGeometry width="50" height="50" relative="1" as="geometry">
            <mxPoint x="290" y="1700" as="sourcePoint" />
            <mxPoint x="588" y="1560" as="targetPoint" />
            <Array as="points">
              <mxPoint x="410" y="1580" />
              <mxPoint x="588" y="1580" />
            </Array>
          </mxGeometry>
        </mxCell>
        <mxCell id="A_-BSA_oqNom-n1UGNlS-43" value="" style="endArrow=none;html=1;rounded=0;exitX=0.5;exitY=0.133;exitDx=0;exitDy=0;exitPerimeter=0;entryX=0.72;entryY=1;entryDx=0;entryDy=0;entryPerimeter=0;curved=0;" parent="1" source="9nKBFp8tCqH7UL8rhXlP-6" target="9nKBFp8tCqH7UL8rhXlP-11" edge="1">
          <mxGeometry width="50" height="50" relative="1" as="geometry">
            <mxPoint x="420" y="1700" as="sourcePoint" />
            <mxPoint x="598" y="1560" as="targetPoint" />
            <Array as="points">
              <mxPoint x="520" y="1590" />
              <mxPoint x="630" y="1590" />
            </Array>
          </mxGeometry>
        </mxCell>
        <mxCell id="A_-BSA_oqNom-n1UGNlS-44" value="" style="endArrow=none;html=1;rounded=0;exitX=0.6;exitY=0.267;exitDx=0;exitDy=0;exitPerimeter=0;entryX=0.835;entryY=1.002;entryDx=0;entryDy=0;entryPerimeter=0;curved=0;" parent="1" source="9nKBFp8tCqH7UL8rhXlP-7" target="9nKBFp8tCqH7UL8rhXlP-11" edge="1">
          <mxGeometry width="50" height="50" relative="1" as="geometry">
            <mxPoint x="530" y="1700" as="sourcePoint" />
            <mxPoint x="640" y="1560" as="targetPoint" />
          </mxGeometry>
        </mxCell>
        <mxCell id="A_-BSA_oqNom-n1UGNlS-45" value="" style="endArrow=none;html=1;rounded=1;exitX=0.5;exitY=0.267;exitDx=0;exitDy=0;exitPerimeter=0;entryX=0.9;entryY=1;entryDx=0;entryDy=0;entryPerimeter=0;curved=0;" parent="1" source="9nKBFp8tCqH7UL8rhXlP-8" target="9nKBFp8tCqH7UL8rhXlP-11" edge="1">
          <mxGeometry width="50" height="50" relative="1" as="geometry">
            <mxPoint x="530" y="1700" as="sourcePoint" />
            <mxPoint x="640" y="1560" as="targetPoint" />
            <Array as="points">
              <mxPoint x="740" y="1600" />
              <mxPoint x="648" y="1600" />
              <mxPoint x="648" y="1580" />
            </Array>
          </mxGeometry>
        </mxCell>
        <mxCell id="A_-BSA_oqNom-n1UGNlS-46" value="" style="endArrow=none;html=1;rounded=1;entryX=0.92;entryY=0.667;entryDx=0;entryDy=0;entryPerimeter=0;curved=0;exitX=0.5;exitY=0.267;exitDx=0;exitDy=0;exitPerimeter=0;" parent="1" source="9nKBFp8tCqH7UL8rhXlP-9" target="9nKBFp8tCqH7UL8rhXlP-11" edge="1">
          <mxGeometry width="50" height="50" relative="1" as="geometry">
            <mxPoint x="530" y="1700" as="sourcePoint" />
            <mxPoint x="640" y="1560" as="targetPoint" />
            <Array as="points">
              <mxPoint x="850" y="1590" />
              <mxPoint x="710" y="1590" />
              <mxPoint x="710" y="1570" />
              <mxPoint x="660" y="1570" />
            </Array>
          </mxGeometry>
        </mxCell>
        <mxCell id="A_-BSA_oqNom-n1UGNlS-47" value="" style="endArrow=none;html=1;rounded=1;exitX=0.6;exitY=0.267;exitDx=0;exitDy=0;exitPerimeter=0;entryX=0.92;entryY=0.667;entryDx=0;entryDy=0;entryPerimeter=0;curved=0;" parent="1" source="9nKBFp8tCqH7UL8rhXlP-10" target="9nKBFp8tCqH7UL8rhXlP-11" edge="1">
          <mxGeometry width="50" height="50" relative="1" as="geometry">
            <mxPoint x="540" y="1710" as="sourcePoint" />
            <mxPoint x="650" y="1570" as="targetPoint" />
            <Array as="points">
              <mxPoint x="970" y="1560" />
              <mxPoint x="730" y="1560" />
              <mxPoint x="730" y="1540" />
            </Array>
          </mxGeometry>
        </mxCell>
        <mxCell id="wGYZC9w_Lk0ds9ITxm0t-1" value="" style="endArrow=none;html=1;rounded=0;strokeWidth=2;" edge="1" parent="1">
          <mxGeometry width="50" height="50" relative="1" as="geometry">
            <mxPoint x="1400" y="877" as="sourcePoint" />
            <mxPoint x="1400.05" y="765" as="targetPoint" />
          </mxGeometry>
        </mxCell>
        <mxCell id="wGYZC9w_Lk0ds9ITxm0t-3" value="" style="endArrow=none;html=1;rounded=1;strokeWidth=2;curved=0;strokeColor=#67AB9F;" edge="1" parent="1">
          <mxGeometry width="50" height="50" relative="1" as="geometry">
            <mxPoint x="1400" y="877" as="sourcePoint" />
            <mxPoint x="1400" y="460" as="targetPoint" />
            <Array as="points">
              <mxPoint x="1400" y="480" />
            </Array>
          </mxGeometry>
        </mxCell>
        <mxCell id="wGYZC9w_Lk0ds9ITxm0t-4" value="&lt;div&gt;Service Port&lt;/div&gt;" style="html=1;verticalLabelPosition=bottom;verticalAlign=top;outlineConnect=0;shadow=0;dashed=0;shape=mxgraph.rack.hpe_aruba.switches.rj45_sfp_alt;spacingTop=-85;fontColor=#0066CC;" vertex="1" parent="1">
          <mxGeometry x="1370" y="410" width="62.5" height="50" as="geometry" />
        </mxCell>
      </root>
    </mxGraphModel>
  </diagram>
</mxfile>
